<svg xmlns="http://www.w3.org/2000/svg" viewBox="0 0 1000 1000"><defs><style>.cls-1{fill:#d37f7f;}.cls-2{fill:#e8e4e4;}.cls-3{fill:#e0dddd;}.cls-4{fill:#555252;}.cls-5{fill:#fff;}</style></defs><title>Asset 2</title><g id="Layer_2" data-name="Layer 2"><g id="Layer_1-2" data-name="Layer 1"><path class="cls-1" d="M500,17.64C233.6,17.64,17.64,233.6,17.64,500H982.36C982.36,233.6,766.4,17.64,500,17.64Z"/><path class="cls-2" d="M500,982.36c266.4,0,482.36-216,482.36-482.36H17.64C17.64,766.4,233.6,982.36,500,982.36Z"/><path class="cls-3" d="M17.64,500c0,160.43,78.32,302.57,198.82,390.26L500,500Z"/><polygon class="cls-4" points="982.91 482 580.95 482 581.14 517.02 982.95 517.02 982.91 482"/><polygon class="cls-4" points="417.91 482 15.95 482 16.14 517.02 417.94 517.02 417.91 482"/><circle class="cls-4" cx="500" cy="500" r="95"/><circle class="cls-5" cx="499.5" cy="499.5" r="67.5"/><path class="cls-4" d="M1000,500c0,276.14-223.86,500-500,500S0,776.14,0,500,223.86,0,500,0,1000,223.86,1000,500ZM30.76,500c0,259.16,210.09,469.24,469.24,469.24S969.24,759.16,969.24,500,759.16,30.76,500,30.76,30.76,240.85,30.76,500Z"/></g></g></svg>